<svg width="32" height="32" viewBox="0 0 32 32" fill="none" xmlns="http://www.w3.org/2000/svg">
<circle cx="16" cy="16" r="16" fill="#0D28A6"/>
<path d="M25.1663 8.50008C24.3683 9.06298 23.4848 9.4935 22.5497 9.77508C22.0478 9.198 21.3808 8.78899 20.6389 8.60335C19.897 8.41771 19.1159 8.46441 18.4014 8.73712C17.6869 9.00984 17.0734 9.49541 16.6438 10.1282C16.2143 10.7609 15.9894 11.5104 15.9997 12.2751V13.1084C14.5352 13.1464 13.0841 12.8216 11.7755 12.163C10.467 11.5043 9.34161 10.5323 8.49967 9.33341C8.49967 9.33341 5.16634 16.8334 12.6663 20.1667C10.9501 21.3317 8.90564 21.9159 6.83301 21.8334C14.333 26.0001 23.4997 21.8334 23.4997 12.2501C23.4989 12.018 23.4766 11.7864 23.433 11.5584C24.2835 10.7197 24.8837 9.66067 25.1663 8.50008V8.50008Z" stroke="white" stroke-linecap="round" stroke-linejoin="round"/>
</svg>
