<svg width="32" height="32" viewBox="0 0 32 32" fill="none" xmlns="http://www.w3.org/2000/svg">
<circle cx="16" cy="16" r="16" fill="#F9CC00"/>
<path d="M11.8337 24.3337H9.33366C8.89163 24.3337 8.46771 24.1581 8.15515 23.8455C7.84259 23.5329 7.66699 23.109 7.66699 22.667V16.8337C7.66699 16.3916 7.84259 15.9677 8.15515 15.6551C8.46771 15.3426 8.89163 15.167 9.33366 15.167H11.8337M17.667 13.5003V10.167C17.667 9.50395 17.4036 8.86807 16.9348 8.39923C16.4659 7.93038 15.83 7.66699 15.167 7.66699L11.8337 15.167V24.3337H21.2337C21.6356 24.3382 22.0256 24.1973 22.3319 23.937C22.6382 23.6767 22.8401 23.3144 22.9003 22.917L24.0503 15.417C24.0866 15.1781 24.0705 14.9342 24.0031 14.7022C23.9357 14.4702 23.8187 14.2556 23.6602 14.0733C23.5017 13.8909 23.3054 13.7453 23.085 13.6463C22.8645 13.5474 22.6252 13.4976 22.3837 13.5003H17.667Z" stroke="white" stroke-width="2" stroke-linecap="round" stroke-linejoin="round"/>
</svg>
